<?xml version="1.0" encoding="utf-8"?>
<!-- Generator: Adobe Illustrator 27.3.1, SVG Export Plug-In . SVG Version: 6.00 Build 0)  -->
<svg version="1.1" id="Layer_1" xmlns="http://www.w3.org/2000/svg" xmlns:xlink="http://www.w3.org/1999/xlink" x="0px" y="0px"
	 viewBox="0 0 22.91 18" style="enable-background:new 0 0 22.91 18;" xml:space="preserve">
<style type="text/css">
	.st0{fill:#9C4E23;}
	.st1{fill:#D88A29;}
</style>
<g>
	<path class="st0" d="M0,2.02c0.09-0.45,0.2-0.9,0.48-1.28c0.28-0.39,0.66-0.62,1.13-0.69C1.8,0.02,2.01,0,2.21,0
		c6.17,0,12.33,0,18.5,0c0.91,0,1.58,0.37,2,1.17c0.25,0.47,0.24,0.98,0.14,1.48c-0.23,1.11-0.89,1.96-1.77,2.61
		c-1.55,1.15-3.15,2.23-4.74,3.33c-1.13,0.78-2.25,1.57-3.39,2.32c-0.36,0.23-0.79,0.4-1.21,0.5c-0.64,0.15-1.22-0.13-1.74-0.47
		C9.08,10.34,8.2,9.72,7.3,9.1C5.52,7.85,3.72,6.62,1.95,5.35C1.21,4.82,0.64,4.12,0.24,3.29C0.13,3.05,0.08,2.77,0,2.51
		C0,2.35,0,2.18,0,2.02z"/>
	<path class="st1" d="M0,5.82c1.39,1.35,3.1,2.26,4.65,3.4c0.34,0.25,0.7,0.48,1.06,0.73C5.67,10,5.64,10.04,5.6,10.07
		c-1.84,1.84-3.68,3.68-5.52,5.52C0.06,15.62,0.03,15.64,0,15.67C0,12.39,0,9.1,0,5.82z"/>
	<path class="st1" d="M0.72,17.5c2.16-2.16,4.31-4.31,6.48-6.48c0.23,0.16,0.47,0.33,0.71,0.51c0.7,0.52,1.43,0.99,2.25,1.31
		c0.95,0.37,1.87,0.3,2.8-0.09c0.85-0.36,1.58-0.91,2.33-1.44c0.13-0.09,0.27-0.19,0.38-0.27c2.17,2.17,4.32,4.32,6.48,6.48
		c-0.28,0.27-0.65,0.42-1.07,0.47C20.97,18,20.84,18,20.71,18c-6.17,0-12.35,0-18.52,0C1.65,18,1.15,17.88,0.72,17.5z"/>
	<path class="st1" d="M17.24,9.95c1.84-1.39,3.9-2.51,5.65-4.07c0,3.24,0,6.49,0,9.72C21.02,13.72,19.13,11.84,17.24,9.95z"/>
</g>
</svg>
