<?xml version="1.0" encoding="utf-8"?>
<!-- Generator: Adobe Illustrator 27.3.1, SVG Export Plug-In . SVG Version: 6.00 Build 0)  -->
<svg version="1.1" id="Layer_1" xmlns="http://www.w3.org/2000/svg" xmlns:xlink="http://www.w3.org/1999/xlink" x="0px" y="0px"
	 viewBox="0 0 19.55 24" style="enable-background:new 0 0 19.55 24;" xml:space="preserve">
<style type="text/css">
	.st0{fill:#9C4E23;}
	.st1{fill:#D88A29;}
</style>
<g>
	<path class="st0" d="M9.61,0c4.02-0.01,7.3,2.99,7.66,6.83c0.13,1.36-0.18,2.63-0.66,3.88c-0.67,1.73-1.61,3.32-2.63,4.86
		c-1.07,1.63-2.24,3.18-3.48,4.68c-0.17,0.2-0.35,0.36-0.62,0.39c-0.35,0.04-0.6-0.11-0.82-0.37C7.43,18.28,5.9,16.22,4.58,14
		c-0.79-1.33-1.47-2.7-1.96-4.18c-1.32-3.96,1-8.21,4.83-9.46C8.2,0.12,8.97-0.01,9.61,0z M9.78,10.6c1.69,0,3.06-1.37,3.07-3.05
		c0.01-1.69-1.38-3.08-3.08-3.08c-1.68,0-3.06,1.38-3.07,3.06C6.69,9.21,8.08,10.6,9.78,10.6z"/>
	<path class="st1" d="M9.5,22.37c1.96-0.04,3.89-0.21,5.76-0.79c0.75-0.23,1.48-0.52,2.1-1.02c0.67-0.54,0.67-0.96,0-1.49
		c-0.66-0.53-1.43-0.81-2.23-1.06c-0.43-0.13-0.65-0.49-0.61-0.92c0.04-0.38,0.35-0.68,0.75-0.72c0.09-0.01,0.19,0,0.28,0.02
		c1.02,0.3,1.99,0.7,2.83,1.36c0.52,0.41,0.92,0.9,1.08,1.56c0.18,0.74-0.03,1.4-0.5,1.98c-0.63,0.78-1.49,1.23-2.39,1.58
		c-1.45,0.57-2.96,0.86-4.5,1.01c-1.86,0.18-3.71,0.16-5.56-0.11c-1.65-0.24-3.28-0.6-4.74-1.46c-0.44-0.26-0.85-0.59-1.19-0.97
		c-0.86-0.98-0.81-2.2,0.08-3.16c0.64-0.7,1.47-1.11,2.33-1.46c0.28-0.11,0.57-0.21,0.86-0.3c0.49-0.15,0.95,0.07,1.1,0.52
		c0.15,0.45-0.1,0.89-0.58,1.08c-0.63,0.25-1.26,0.51-1.86,0.81c-0.24,0.12-0.46,0.32-0.65,0.52c-0.29,0.3-0.31,0.62-0.01,0.9
		c0.33,0.31,0.71,0.6,1.11,0.81c1.11,0.59,2.33,0.87,3.57,1.04C7.54,22.22,8.52,22.28,9.5,22.37z"/>
</g>
</svg>
