<?xml version="1.0" encoding="utf-8"?>
<!-- Generator: Adobe Illustrator 27.3.1, SVG Export Plug-In . SVG Version: 6.00 Build 0)  -->
<svg version="1.1" id="Layer_1" xmlns="http://www.w3.org/2000/svg" xmlns:xlink="http://www.w3.org/1999/xlink" x="0px" y="0px"
	 viewBox="0 0 29.05 24" style="enable-background:new 0 0 29.05 24;" xml:space="preserve">
<style type="text/css">
	.st0{fill:#9C4E23;}
	.st1{fill:#D88A29;}
</style>
<g>
	<path class="st0" d="M24.87,6.75c0.25,0.03,0.52,0.05,0.79,0.1c1.73,0.32,3.12,1.77,3.34,3.51c0.04,0.35,0.05,0.7,0.05,1.05
		c0.01,0.61,0,1.23,0,1.84c0,2.08-1.52,3.84-3.57,4.15c-0.41,0.06-0.82,0.07-1.22,0c-0.09-0.01-0.17-0.02-0.28-0.03
		c-1.84,2.72-4.38,4.38-7.6,4.98c-0.6,1.46-1.92,1.81-2.87,1.58c-1.07-0.25-1.85-1.21-1.89-2.32c-0.03-1.08,0.71-2.09,1.76-2.39
		c0.93-0.26,2.19-0.02,2.91,1.34c0.09-0.01,0.2-0.02,0.3-0.04c3.74-0.84,6.55-3.73,7.27-7.49c0.93-4.81-2-9.57-6.73-10.91
		C11.78,0.62,6.45,3.94,5.27,9.16c-0.52,2.3-0.2,4.49,0.89,6.58c0.08,0.14,0.14,0.3,0.17,0.46c0.06,0.43-0.15,0.77-0.57,0.95
		c-0.63,0.26-1.28,0.35-1.95,0.29c-1.76-0.17-3.2-1.39-3.65-3.09c-0.09-0.33-0.14-0.67-0.14-1.01c-0.02-0.81-0.02-1.62-0.01-2.43
		c0.02-1.78,1.16-3.37,2.85-3.92C3.28,6.85,3.73,6.8,4.2,6.71C6.32,2.5,9.7,0.16,14.51,0C19.33,0.15,22.72,2.48,24.87,6.75z"/>
	<path class="st1" d="M12.62,18.38c-0.95,0.55-1.9,1.1-2.84,1.64c-0.17,0.1-0.34,0.18-0.55,0.19c-0.57,0.01-1-0.49-0.87-1.05
		c0.17-0.73,0.38-1.45,0.57-2.18c0.06-0.23,0.12-0.47,0.19-0.71c-1.36-1.53-2.04-3.31-1.95-5.36C7.24,9.14,7.9,7.59,9.09,6.28
		c2.43-2.66,6.34-3.13,9.29-1.3c2.99,1.85,4.27,5.51,3.05,8.83C20.22,17.11,16.59,19.38,12.62,18.38z M14.53,12.12
		c0.49,0,0.87-0.39,0.88-0.87c0-0.49-0.41-0.9-0.9-0.88c-0.48,0.01-0.87,0.42-0.86,0.89C13.65,11.74,14.05,12.13,14.53,12.12z
		 M11.61,12.12c0.48,0,0.87-0.39,0.87-0.87c0-0.47-0.4-0.88-0.87-0.88c-0.48,0-0.89,0.41-0.88,0.89
		C10.73,11.75,11.12,12.13,11.61,12.12z M17.45,12.12c0.49,0,0.88-0.37,0.88-0.86c0.01-0.48-0.4-0.9-0.88-0.9
		c-0.47,0.01-0.87,0.41-0.87,0.88C16.58,11.73,16.96,12.12,17.45,12.12z"/>
</g>
</svg>
